<mxfile host="app.diagrams.net" modified="2024-01-09T17:59:41.422Z" agent="Mozilla/5.0 (Windows NT 10.0; Win64; x64) AppleWebKit/537.36 (KHTML, like Gecko) Chrome/119.0.0.0 Safari/537.36 OPR/105.0.0.0" etag="8f0vLuNbKACXA7JY6jcu" version="22.1.17" type="device">
  <diagram name="Página-1" id="2EexujpiMBokoDYCEsTi">
    <mxGraphModel dx="1393" dy="797" grid="1" gridSize="10" guides="1" tooltips="1" connect="1" arrows="1" fold="1" page="1" pageScale="1" pageWidth="827" pageHeight="1169" math="0" shadow="0">
      <root>
        <mxCell id="0" />
        <mxCell id="1" parent="0" />
        <mxCell id="izTCmZv2QQAN_j2-O_PR-31" value="" style="whiteSpace=wrap;html=1;aspect=fixed;" vertex="1" parent="1">
          <mxGeometry x="690" y="160" width="285" height="285" as="geometry" />
        </mxCell>
        <mxCell id="izTCmZv2QQAN_j2-O_PR-1" value="&lt;div style=&quot;&quot;&gt;&lt;span style=&quot;background-color: initial;&quot;&gt;&lt;font style=&quot;font-size: 18px;&quot;&gt;Cliente&lt;/font&gt;&lt;/span&gt;&lt;/div&gt;" style="shape=mxgraph.cisco.computers_and_peripherals.pc;html=1;pointerEvents=1;dashed=0;fillColor=#036897;strokeColor=#ffffff;strokeWidth=2;verticalLabelPosition=bottom;verticalAlign=top;align=center;outlineConnect=0;" vertex="1" parent="1">
          <mxGeometry x="40" y="170" width="78" height="70" as="geometry" />
        </mxCell>
        <mxCell id="izTCmZv2QQAN_j2-O_PR-5" value="&lt;font style=&quot;font-size: 18px;&quot;&gt;Servidor Web&lt;br&gt;&lt;br&gt;&lt;/font&gt;" style="image;html=1;image=img/lib/clip_art/computers/Server_Rack_128x128.png" vertex="1" parent="1">
          <mxGeometry x="520" y="170" width="80" height="80" as="geometry" />
        </mxCell>
        <mxCell id="izTCmZv2QQAN_j2-O_PR-7" value="&lt;span style=&quot;font-size: 18px;&quot;&gt;Database &lt;br&gt;(PostgreSQL)&lt;/span&gt;" style="image;aspect=fixed;perimeter=ellipsePerimeter;html=1;align=center;shadow=0;dashed=0;spacingTop=3;image=img/lib/active_directory/databases.svg;" vertex="1" parent="1">
          <mxGeometry x="815" y="320" width="70" height="68.6" as="geometry" />
        </mxCell>
        <mxCell id="izTCmZv2QQAN_j2-O_PR-12" value="&lt;font style=&quot;font-size: 18px;&quot;&gt;Servidor &lt;br&gt;Database&lt;br&gt;&lt;br&gt;&lt;/font&gt;" style="image;html=1;image=img/lib/clip_art/computers/Server_Rack_128x128.png" vertex="1" parent="1">
          <mxGeometry x="810" y="170" width="80" height="80" as="geometry" />
        </mxCell>
        <mxCell id="izTCmZv2QQAN_j2-O_PR-14" value="" style="endArrow=classic;html=1;rounded=0;entryX=0.07;entryY=0.4;entryDx=0;entryDy=0;entryPerimeter=0;" edge="1" parent="1" source="izTCmZv2QQAN_j2-O_PR-1" target="izTCmZv2QQAN_j2-O_PR-32">
          <mxGeometry width="50" height="50" relative="1" as="geometry">
            <mxPoint x="390" y="430" as="sourcePoint" />
            <mxPoint x="210" y="205" as="targetPoint" />
          </mxGeometry>
        </mxCell>
        <mxCell id="izTCmZv2QQAN_j2-O_PR-15" value="&lt;span style=&quot;font-size: 16px;&quot;&gt;Conexión HTTP&lt;/span&gt;" style="edgeLabel;html=1;align=center;verticalAlign=middle;resizable=0;points=[];rotation=0;" vertex="1" connectable="0" parent="izTCmZv2QQAN_j2-O_PR-14">
          <mxGeometry x="-0.1593" y="-4" relative="1" as="geometry">
            <mxPoint x="17" y="21" as="offset" />
          </mxGeometry>
        </mxCell>
        <mxCell id="izTCmZv2QQAN_j2-O_PR-16" value="" style="endArrow=classic;html=1;rounded=0;exitX=1;exitY=0.5;exitDx=0;exitDy=0;" edge="1" parent="1" source="izTCmZv2QQAN_j2-O_PR-5" target="izTCmZv2QQAN_j2-O_PR-12">
          <mxGeometry width="50" height="50" relative="1" as="geometry">
            <mxPoint x="390" y="460" as="sourcePoint" />
            <mxPoint x="440" y="410" as="targetPoint" />
          </mxGeometry>
        </mxCell>
        <mxCell id="izTCmZv2QQAN_j2-O_PR-17" value="&lt;font style=&quot;font-size: 18px;&quot;&gt;Petición HTTP&amp;nbsp;&lt;/font&gt;" style="edgeLabel;html=1;align=center;verticalAlign=middle;resizable=0;points=[];" vertex="1" connectable="0" parent="izTCmZv2QQAN_j2-O_PR-16">
          <mxGeometry x="0.0667" y="-3" relative="1" as="geometry">
            <mxPoint y="-23" as="offset" />
          </mxGeometry>
        </mxCell>
        <mxCell id="izTCmZv2QQAN_j2-O_PR-19" style="edgeStyle=orthogonalEdgeStyle;rounded=0;orthogonalLoop=1;jettySize=auto;html=1;exitX=0.5;exitY=1;exitDx=0;exitDy=0;" edge="1" parent="1" source="izTCmZv2QQAN_j2-O_PR-7" target="izTCmZv2QQAN_j2-O_PR-7">
          <mxGeometry relative="1" as="geometry" />
        </mxCell>
        <mxCell id="izTCmZv2QQAN_j2-O_PR-30" value="" style="endArrow=classic;startArrow=classic;html=1;rounded=0;exitX=0.5;exitY=1;exitDx=0;exitDy=0;entryX=0.5;entryY=0;entryDx=0;entryDy=0;" edge="1" parent="1" source="izTCmZv2QQAN_j2-O_PR-12" target="izTCmZv2QQAN_j2-O_PR-7">
          <mxGeometry width="50" height="50" relative="1" as="geometry">
            <mxPoint x="830" y="420" as="sourcePoint" />
            <mxPoint x="950" y="390" as="targetPoint" />
          </mxGeometry>
        </mxCell>
        <mxCell id="izTCmZv2QQAN_j2-O_PR-32" value="&lt;font style=&quot;font-size: 18px;&quot;&gt;Internet&lt;/font&gt;" style="ellipse;shape=cloud;whiteSpace=wrap;html=1;" vertex="1" parent="1">
          <mxGeometry x="250" y="170.00000000000003" width="120" height="80" as="geometry" />
        </mxCell>
        <mxCell id="izTCmZv2QQAN_j2-O_PR-34" value="" style="endArrow=classic;html=1;rounded=0;exitX=0.975;exitY=0.538;exitDx=0;exitDy=0;exitPerimeter=0;entryX=0;entryY=0.5;entryDx=0;entryDy=0;" edge="1" parent="1" source="izTCmZv2QQAN_j2-O_PR-32" target="izTCmZv2QQAN_j2-O_PR-5">
          <mxGeometry width="50" height="50" relative="1" as="geometry">
            <mxPoint x="390" y="320" as="sourcePoint" />
            <mxPoint x="440" y="270" as="targetPoint" />
          </mxGeometry>
        </mxCell>
      </root>
    </mxGraphModel>
  </diagram>
</mxfile>
